<?xml version="1.0" standalone="no"?>
<!DOCTYPE svg PUBLIC "-//W3C//DTD SVG 20010904//EN"
 "http://www.w3.org/TR/2001/REC-SVG-20010904/DTD/svg10.dtd">
<svg version="1.0" xmlns="http://www.w3.org/2000/svg"
 width="512.000000pt" height="512.000000pt" viewBox="0 0 512.000000 512.000000"
 preserveAspectRatio="xMidYMid meet">

<g transform="translate(0.000000,512.000000) scale(0.100000,-0.100000)"
fill="#000000" stroke="none">
<path d="M3230 4764 c-100 -39 -134 -78 -109 -126 6 -12 17 -26 23 -30 18 -12
69 -8 96 7 30 17 74 19 103 4 12 -6 97 -85 188 -176 l167 -166 -32 -66 c-29
-61 -31 -74 -31 -172 0 -101 1 -108 37 -181 45 -91 103 -147 196 -191 62 -30
75 -32 172 -32 97 0 110 2 171 31 l66 32 166 -167 c91 -91 170 -176 176 -188
15 -30 14 -69 -3 -101 -8 -15 -133 -145 -278 -290 l-264 -263 -29 31 c-35 36
-84 41 -115 10 -29 -29 -25 -64 12 -105 l31 -37 -721 -721 -721 -721 -34 32
c-42 41 -87 43 -116 6 -29 -37 -26 -58 13 -102 l35 -38 -267 -266 c-147 -146
-277 -271 -289 -277 -28 -14 -68 -14 -96 0 -12 6 -97 85 -188 176 l-167 166
32 66 c29 61 31 74 31 172 0 101 -1 108 -37 181 -45 91 -103 147 -196 191 -62
30 -75 32 -172 32 -97 0 -110 -2 -171 -31 l-66 -32 -166 167 c-91 91 -170 176
-176 188 -14 28 -14 68 0 96 6 12 131 142 277 289 l266 267 38 -35 c44 -39 65
-42 102 -13 37 29 35 74 -6 116 l-32 33 112 113 c101 103 112 118 112 150 0
26 -6 40 -22 51 -53 37 -48 41 -516 -427 -394 -394 -444 -448 -462 -495 -24
-64 -25 -122 -4 -188 15 -42 47 -79 228 -262 116 -117 221 -215 234 -219 16
-4 33 1 50 16 133 106 279 105 387 -3 40 -40 57 -67 69 -106 29 -96 18 -155
-45 -250 -29 -42 -39 -67 -35 -83 3 -12 101 -117 218 -233 191 -189 219 -213
267 -229 66 -21 140 -17 202 13 32 16 407 384 1420 1399 1316 1318 1378 1380
1394 1432 21 66 17 141 -13 202 -28 58 -429 459 -459 459 -11 0 -40 -16 -64
-35 -153 -121 -373 -63 -434 114 -31 92 -13 188 50 270 19 24 35 53 35 65 0
26 -401 430 -455 458 -40 21 -153 34 -185 22z"/>
<path d="M2517 4102 c-303 -303 -367 -372 -367 -395 0 -37 33 -67 72 -67 28 0
53 21 200 167 l168 167 33 -32 c42 -41 87 -43 116 -6 29 37 26 58 -13 102
l-35 38 135 135 c75 74 142 146 150 161 17 33 9 74 -16 88 -55 30 -57 29 -443
-358z"/>
<path d="M2820 3840 c-41 -41 -28 -66 93 -187 96 -96 118 -113 144 -113 41 0
77 42 68 80 -3 14 -54 73 -113 133 -92 92 -111 107 -139 107 -20 0 -41 -8 -53
-20z"/>
<path d="M1712 3297 c-184 -184 -212 -216 -212 -243 0 -51 47 -80 96 -59 40
17 424 406 425 431 3 54 -20 84 -65 84 -27 0 -58 -27 -244 -213z"/>
<path d="M3186 3468 c-33 -46 -22 -66 97 -185 119 -119 139 -130 185 -97 16
11 22 25 22 52 0 34 -9 47 -108 145 -97 97 -111 107 -144 107 -27 0 -41 -6
-52 -22z"/>
<path d="M3567 3110 c-19 -15 -27 -31 -27 -53 0 -26 17 -48 113 -144 121 -121
143 -132 185 -93 14 13 22 33 22 53 0 28 -15 47 -107 139 -60 59 -119 110
-133 113 -18 4 -34 0 -53 -15z"/>
<path d="M2795 3105 c-5 -2 -23 -6 -39 -10 -17 -3 -64 -40 -117 -91 -101 -98
-86 -96 -220 -28 -95 48 -143 55 -206 29 -50 -21 -72 -42 -94 -90 -30 -66 -25
-114 25 -213 68 -136 69 -121 -22 -215 -95 -98 -105 -115 -105 -182 0 -56 12
-85 52 -128 54 -60 101 -68 257 -45 101 14 100 15 159 -103 24 -47 58 -98 75
-112 29 -25 86 -47 120 -47 36 0 93 23 124 51 43 37 60 82 76 190 6 47 15 91
20 98 4 8 54 22 113 32 117 20 153 34 190 79 25 29 47 86 47 120 0 34 -22 91
-47 120 -14 17 -65 51 -112 75 -118 59 -117 58 -103 159 15 103 15 171 1 199
-17 32 -60 77 -89 92 -27 13 -89 25 -105 20z m55 -160 c10 -12 9 -37 -4 -126
-27 -173 -4 -217 154 -298 92 -48 100 -54 100 -81 0 -16 -4 -31 -9 -35 -5 -3
-57 -14 -114 -24 -179 -33 -212 -64 -237 -231 -18 -118 -23 -130 -59 -130 -28
0 -34 7 -82 100 -80 157 -124 180 -301 154 -86 -13 -112 -13 -123 -4 -29 24
-15 53 64 135 120 125 127 174 46 335 -47 94 -51 124 -15 135 11 4 53 -11 110
-40 162 -81 218 -73 340 50 76 76 105 90 130 60z"/>
<path d="M1280 2300 c-12 -12 -20 -33 -20 -53 0 -28 15 -47 109 -141 94 -94
114 -109 142 -109 21 0 38 7 51 22 36 46 26 67 -95 188 -121 121 -146 134
-187 93z"/>
<path d="M1652 1934 c-16 -11 -22 -25 -22 -52 0 -34 9 -47 108 -145 97 -97
111 -107 144 -107 27 0 41 6 52 22 33 46 22 66 -97 185 -119 119 -139 130
-185 97z"/>
<path d="M2010 1553 c-15 -19 -19 -35 -15 -53 3 -14 54 -73 114 -132 91 -92
113 -108 139 -108 39 0 72 31 72 67 0 21 -25 52 -113 140 -96 96 -118 113
-144 113 -22 0 -38 -8 -53 -27z"/>
</g>
</svg>
